<svg viewBox="0 0 24 24" xmlns="http://www.w3.org/2000/svg" role="img"><title>svgo</title><path d="M21.9685 9.5707C21.7 8.56342 21.2813 7.60231 20.7266 6.7197C21.1382 6.1401 21.533 5.5474 21.8989 4.9198L19.0718 2.1011C18.4286 2.4779 17.8191 2.8859 17.2227 3.3118C16.3632 2.7997 15.4334 2.41607 14.4628 2.1731C14.3428 1.4531 14.1952 0.7248 14.0056 0H10.0002C9.81311 0.7104 9.67271 1.4207 9.55271 2.1311C8.55351 2.36332 7.59459 2.74348 6.70771 3.259C6.13531 2.8522 5.54861 2.461 4.93061 2.1011L2.10231 4.9282C2.44311 5.5102 2.80911 6.0657 3.18941 6.6081C2.59377 7.52773 2.14824 8.53627 1.86951 9.5959C1.24184 9.7065 0.61862 9.841 0.00120544 9.9991V13.9997C0.580805 14.1509 1.15791 14.2733 1.73751 14.3789C1.97589 15.5307 2.4093 16.6333 3.01901 17.6391C2.69861 18.1011 2.39021 18.5763 2.10221 19.0706L4.93051 21.8989C5.41051 21.6205 5.86531 21.3253 6.31161 21.0181C7.33462 21.6749 8.46548 22.1461 9.65221 22.41C9.74941 22.9404 9.86341 23.4707 10.0002 23.9999H14.0008C14.1424 23.4563 14.2576 22.914 14.3608 22.3692C15.5195 22.0923 16.6214 21.6165 17.6174 20.9629C18.089 21.2893 18.5774 21.6049 19.0741 21.8989L21.9012 19.0706C21.5868 18.5342 21.2484 18.0195 20.8969 17.5107C21.4623 16.5461 21.8676 15.4961 22.0968 14.4017C22.7304 14.2901 23.3651 14.1617 23.9987 13.9961V9.9991C23.3232 9.8239 22.6453 9.6859 21.9685 9.5707ZM19.0538 14.7593C18.3665 16.7149 16.8926 18.3112 15.0016 19.1583C13.105 20.0143 10.9313 20.0357 9.01151 19.2375C7.12531 18.4486 5.55791 16.8562 4.83691 14.8985C4.11421 12.9677 4.21851 10.806 5.12491 8.954C5.92315 7.32071 7.27973 6.02713 8.94911 5.3074C10.8806 4.4702 13.159 4.5005 15.0676 5.389C16.6542 6.11829 17.9408 7.37228 18.7106 8.9396C19.5995 10.7463 19.7217 12.8605 19.0538 14.7593ZM17.3655 14.6177C17.4345 14.9574 17.3852 15.3105 17.2259 15.6183C16.8402 16.3634 15.9236 16.6548 15.1785 16.2691C14.4334 15.8834 14.142 14.9668 14.5277 14.2217L13.3278 13.3253C13.0237 13.646 12.6253 13.8613 12.1904 13.9398C11.7555 14.0184 11.3069 13.9561 10.9099 13.7621L9.94991 15.2572C10.332 15.6191 10.4542 16.1778 10.2582 16.6662C9.99431 17.3237 9.24751 17.6427 8.59001 17.3789C7.93251 17.115 7.61351 16.3682 7.87731 15.7107C8.14121 15.0532 8.88801 14.7342 9.54551 14.998L10.5055 13.5017C10.1983 13.2519 9.96913 12.9193 9.84494 12.5434C9.72076 12.1675 9.70679 11.7638 9.80471 11.3802L7.74201 10.5715C7.6433 10.7072 7.51075 10.8146 7.35757 10.8831C7.2044 10.9516 7.03594 10.9787 6.86901 10.9618C6.34151 10.9084 5.95721 10.4375 6.01071 9.91C6.06411 9.3825 6.53501 8.9983 7.06251 9.0517C7.59001 9.1051 7.97431 9.576 7.92081 10.1035V10.1239L9.98111 10.9339C10.4838 9.9626 11.655 9.5496 12.6558 9.9907L13.6253 8.3264C13.4861 8.19466 13.3861 8.02686 13.3366 7.84169C13.2871 7.65652 13.29 7.46124 13.3449 7.2776C13.5087 6.7296 14.0857 6.4182 14.6336 6.582C15.1816 6.7458 15.493 7.3228 15.3292 7.8707C15.1654 8.4187 14.5884 8.7301 14.0405 8.5663L13.0674 10.2306C13.9133 10.8636 14.1489 12.031 13.6146 12.9425L14.8145 13.8353C15.0239 13.63 15.2883 13.4897 15.5757 13.4313C16.3979 13.2643 17.1998 13.7955 17.3668 14.6177H17.3655Z" fill="#07F"/></svg>
