<svg style="display: none;" role="img" aria-hidden="true" xmlns="http://www.w3.org/2000/svg" xmlns:xlink="http://www.w3.org/1999/xlink"><symbol viewBox="0 0 50 50" id="github"><path d="M25 0C11.1958 0 0 11.4767 0 25.632C0 36.9571 7.1625 46.5648 17.0979 49.9546C18.3458 50.1917 18.75 49.3971 18.75 48.7222V43.9503C11.7958 45.5011 10.3479 40.9258 10.3479 40.9258C9.21042 37.9631 7.57083 37.175 7.57083 37.175C5.30208 35.5836 7.74375 35.6178 7.74375 35.6178C10.2542 35.7972 11.575 38.26 11.575 38.26C13.8042 42.1775 17.4229 41.0454 18.85 40.3896C19.0729 38.7342 19.7208 37.6022 20.4375 36.9635C14.8854 36.312 9.04792 34.1141 9.04792 24.2949C9.04792 21.4946 10.025 19.2091 11.6229 17.4148C11.3646 16.7676 10.5083 14.1595 11.8667 10.6309C11.8667 10.6309 13.9667 9.94308 18.7437 13.2582C20.7375 12.69 22.875 12.4059 25 12.3952C27.125 12.4059 29.2646 12.69 31.2625 13.2582C36.0354 9.94308 38.1312 10.6309 38.1312 10.6309C39.4917 14.1617 38.6354 16.7697 38.3771 17.4148C39.9812 19.2091 40.95 21.4967 40.95 24.2949C40.95 34.1397 35.1021 36.3077 29.5354 36.9421C30.4312 37.7367 31.25 39.296 31.25 41.6883V48.7222C31.25 49.4036 31.65 50.2046 32.9187 49.9525C42.8458 46.5584 50 36.9528 50 25.632C50 11.4767 38.8062 0 25 0Z"/></symbol><symbol viewBox="0 0 50 50" id="gmail"><path fill-rule="evenodd" clip-rule="evenodd" d="M49.4792 25C49.4792 38.8071 38.4029 50 24.7396 50C11.0763 50 0 38.8071 0 25C0 11.1929 11.0763 0 24.7396 0C38.4029 0 49.4792 11.1929 49.4792 25ZM11.8908 12.0159H37.5886C39.3547 12.0159 40.8008 13.4772 40.8008 15.2619V34.7381C40.8008 36.5228 39.3547 37.9841 37.5886 37.9841H11.8908C10.1239 37.9841 8.67861 36.5228 8.67861 34.7381V15.2619C8.67861 13.4772 10.1239 12.0159 11.8908 12.0159ZM34.3763 34.7381H37.5886V15.2619H35.6609L24.7397 22.0789L13.8185 15.2619H11.8908V34.7381H15.103V20.4559L24.7397 26.623L34.3763 20.4559V34.7381Z"/></symbol><symbol viewBox="0 0 22 22" id="info"><path d="M11 21C16.5228 21 21 16.5228 21 11 21 5.47715 16.5228 1 11 1 5.47715 1 1 5.47715 1 11 1 16.5228 5.47715 21 11 21ZM11 15V11M11 7H11.01" stroke-width="2" stroke-linecap="round" stroke-linejoin="round"/></symbol><symbol viewBox="0 0 50 50" id="phone"><path d="M24.7397 0C11.0773 0 0 11.1939 0 25.0001C0 38.8061 11.0773 50.0002 24.7397 50.0002C38.4021 50.0002 49.4792 38.806 49.4792 25.0001C49.4793 11.1939 38.4021 0 24.7397 0ZM37.8039 36.4779L35.823 38.48C35.4694 38.8369 34.4338 39.0596 34.4006 39.0596C28.134 39.1148 22.1003 36.6274 17.667 32.1471C13.2216 27.6524 10.7573 21.5334 10.8235 15.1795C10.8235 15.1766 11.0503 14.1602 11.4036 13.8065L13.3844 11.8046C14.1092 11.0687 15.5016 10.7362 16.477 11.0659L16.8936 11.2064C17.8662 11.5358 18.8873 12.6225 19.156 13.6236L20.1524 17.3191C20.4211 18.3231 20.0586 19.7514 19.334 20.4839L18.0114 21.8207C19.3099 26.6786 23.0819 30.4909 27.89 31.8063L29.2121 30.4693C29.9403 29.7334 31.3533 29.3675 32.3447 29.6386L36.0012 30.6491C36.9921 30.9242 38.0672 31.9496 38.3931 32.932L38.5321 33.3592C38.8551 34.342 38.5286 35.7487 37.8039 36.4779Z"/></symbol><symbol viewBox="0 0 50 50" id="telegram"><path d="M24.7396 0C11.0722 0 0 11.1903 0 25C0 38.8097 11.0738 50 24.7396 50C38.407 50 49.4792 38.8097 49.4792 25C49.4792 11.1903 38.4054 0 24.7396 0ZM36.8907 17.1274L32.8302 36.4629C32.5302 37.8339 31.7225 38.1661 30.5957 37.521L24.4108 32.9145L21.4277 35.8177C21.0989 36.15 20.8196 36.4323 20.1811 36.4323L20.62 30.071L32.0817 19.6065C32.5812 19.1629 31.9715 18.9113 31.3123 19.3548L17.1469 28.3661L11.0418 26.4403C9.71547 26.0177 9.68515 25.1 11.3212 24.4548L35.1733 15.1597C36.281 14.7565 37.2482 15.4323 36.8891 17.1258L36.8907 17.1274Z"/></symbol></svg>