<svg width="50" height="50" viewBox="0 0 50 50" fill="none" xmlns="http://www.w3.org/2000/svg">
<path fill-rule="evenodd" clip-rule="evenodd" d="M49.4792 25C49.4792 38.8071 38.4029 50 24.7396 50C11.0763 50 0 38.8071 0 25C0 11.1929 11.0763 0 24.7396 0C38.4029 0 49.4792 11.1929 49.4792 25ZM11.8908 12.0159H37.5886C39.3547 12.0159 40.8008 13.4772 40.8008 15.2619V34.7381C40.8008 36.5228 39.3547 37.9841 37.5886 37.9841H11.8908C10.1239 37.9841 8.67861 36.5228 8.67861 34.7381V15.2619C8.67861 13.4772 10.1239 12.0159 11.8908 12.0159ZM34.3763 34.7381H37.5886V15.2619H35.6609L24.7397 22.0789L13.8185 15.2619H11.8908V34.7381H15.103V20.4559L24.7397 26.623L34.3763 20.4559V34.7381Z" fill="black"/>
</svg>
