<svg viewBox="0 0 50 50" xmlns="http://www.w3.org/2000/svg"><title>Phone</title><path d="M24.7397 0C11.0773 0 0 11.1939 0 25.0001C0 38.8061 11.0773 50.0002 24.7397 50.0002C38.4021 50.0002 49.4792 38.806 49.4792 25.0001C49.4793 11.1939 38.4021 0 24.7397 0ZM37.8039 36.4779L35.823 38.48C35.4694 38.8369 34.4338 39.0596 34.4006 39.0596C28.134 39.1148 22.1003 36.6274 17.667 32.1471C13.2216 27.6524 10.7573 21.5334 10.8235 15.1795C10.8235 15.1766 11.0503 14.1602 11.4036 13.8065L13.3844 11.8046C14.1092 11.0687 15.5016 10.7362 16.477 11.0659L16.8936 11.2064C17.8662 11.5358 18.8873 12.6225 19.156 13.6236L20.1524 17.3191C20.4211 18.3231 20.0586 19.7514 19.334 20.4839L18.0114 21.8207C19.3099 26.6786 23.0819 30.4909 27.89 31.8063L29.2121 30.4693C29.9403 29.7334 31.3533 29.3675 32.3447 29.6386L36.0012 30.6491C36.9921 30.9242 38.0672 31.9496 38.3931 32.932L38.5321 33.3592C38.8551 34.342 38.5286 35.7487 37.8039 36.4779Z" /></svg>
