<svg width="50" height="50" viewBox="0 0 50 50" fill="none" xmlns="http://www.w3.org/2000/svg">
<path d="M24.7396 0C11.0722 0 0 11.1903 0 25C0 38.8097 11.0738 50 24.7396 50C38.407 50 49.4792 38.8097 49.4792 25C49.4792 11.1903 38.4054 0 24.7396 0ZM36.8907 17.1274L32.8302 36.4629C32.5302 37.8339 31.7225 38.1661 30.5957 37.521L24.4108 32.9145L21.4277 35.8177C21.0989 36.15 20.8196 36.4323 20.1811 36.4323L20.62 30.071L32.0817 19.6065C32.5812 19.1629 31.9715 18.9113 31.3123 19.3548L17.1469 28.3661L11.0418 26.4403C9.71547 26.0177 9.68515 25.1 11.3212 24.4548L35.1733 15.1597C36.281 14.7565 37.2482 15.4323 36.8891 17.1258L36.8907 17.1274Z" fill="black"/>
</svg>
