<svg viewBox="0 0 2048 2048" xmlns="http://www.w3.org/2000/svg" role="img"><title>w3c</title><g><polygon points="1792,1775.66 1792,272.34 1792,255.998 1775.66,255.998 272.341,255.998 255.999,255.998 255.999,272.34 255.999,1775.66 255.999,1792 272.341,1792 1775.66,1792 1792,1792" fill="#059"/><path d="M754.818 1414.36l127.215 -425.711 127.227 425.711 3.49252 11.6811 12.1453 0 9.51379 0 12.1559 0 3.48071 -11.7449 195.212 -658.777 3.30591 -5.62559 123.411 0 -119.14 205.962 -2.23465 8.16969 0 45.6874 0 16.2756 16.3406 0.0011811 38.0894 0.00236221 0 0.0637796c22.291,0 41.3835,3.31418 57.2634,9.92481 15.2563,6.35079 27.7122,15.8268 37.3512,28.4091l0.0637796 0.0649607c8.563,11.0445 15.0177,24.4642 19.3595,40.2662 4.49882,16.376 6.75119,35.4981 6.75119,57.3721 0,19.7823 -2.10591,37.8886 -6.3189,54.3248 -4.17992,16.3016 -10.4421,31.2154 -18.7925,44.739 -7.93583,12.8492 -16.5697,22.3642 -25.8886,28.5319 -8.50749,5.6315 -17.8134,8.45198 -27.9047,8.45198 -10.7291,0 -20.6599,-1.74921 -29.7921,-5.24056 -9.1382,-3.49252 -17.6268,-8.76733 -25.4705,-15.8114l-0.0637796 0c-8.20512,-7.35237 -15.7193,-16.2378 -22.5437,-26.6492 -6.94843,-10.6016 -13.0701,-22.6583 -18.3697,-36.1654l-6.0815 -15.502 -15.365 6.37441 -78.0709 32.3847 -13.9866 5.80158 4.7315 14.3681c8.31379,25.2579 18.9921,48.0874 32.028,68.4827 13.1221,20.5311 28.5307,38.3776 46.2201,53.5217 18.0036,15.3768 37.6181,26.9528 58.8461,34.7032 21.2221,7.74922 43.8626,11.6327 67.9182,11.6327 32.002,0 61.193,-6.52441 87.567,-19.5732 26.2536,-12.9874 49.4504,-32.3705 69.5812,-58.1434l0.0637796 0c19.7398,-25.3618 34.5555,-53.667 44.4237,-84.9142 9.7819,-30.9709 14.6811,-64.7481 14.6811,-101.33 0,-29.5075 -3.36496,-57.2953 -10.0984,-83.3717 -6.73701,-26.0894 -16.8815,-50.2973 -30.4335,-72.6343 -13.7788,-22.7256 -30.8185,-41.9244 -51.1158,-57.5811 -15.2929,-11.7969 -32.3929,-21.5681 -51.2953,-29.3091l131.162 -226.066 2.23465 -8.16969 0 -46.65 0 -16.3417 -16.3406 0 -274.349 0 -97.0205 0 -2.92914 0 -12.1831 0 -3.45473 11.7461 -122.497 416.368 -126.644 -428.536 -111.456 0.433465 -21.8965 0 6.25985 21 44.3374 148.758 -76.3016 258.436 -122.463 -416.459 -3.45355 -11.7437 -12.1843 -0.00236221 -100.005 0 -21.8398 0 6.20197 20.9374 228.548 771.402 3.48071 11.7449 12.1571 0 9.5256 0 12.1476 0 3.49016 -11.6811z" fill="#fff"/></g></svg>
